# xmcd
#
# Track frame offsets:
#	150
#	17770
#	31435
#	50285
#	69057
#	82804
#	103863
#	118769
#	132917
#	153282
#	167278
#	180542
#	194646
#	213495
#	225595
#	237347
#	250748
#	268578
#	280664
#
# Disc length: 4090
#
# Revision: 1
# Processed by: cddbd v1.5.1PL0 Copyright (c) Steve Scherf et al.
# Submitted via: VisiTrax 2.9.5.180 - For more info visit www.synapsa.com
# Normalized: r0:DSETVAR1
#
DISCID=f70ff813
DTITLE=Various Artist - CDX 188 May 1998
DYEAR=1998
DGENRE=
TTITLE0=Wilkinsons - 26c
TTITLE1=Clint Daniels - A fool's progress
TTITLE2=Mavericks - Dance the night away
TTITLE3=Don Edwards - Goin' back to Texas
TTITLE4=Patty Loveless - High on love
TTITLE5=Vince Gill - If you ever have forever in mind
TTITLE6=Jo Dee Messina - I'm alright
TTITLE7=Ricky Van Shelton - It wouldn't kill me
TTITLE8=Faith Hill/Tim McGraw - Just to hear you say that you love me
TTITLE9=Charlie Daniels Band/Lee Roy Parnell/Ray Benson - Texas
TTITLE10=Mindy McCready - The other side of this kiss
TTITLE11=Garth Brooks - Uptown down-home good ol' boy
TTITLE12=Garth Brooks - This ain't Tennessee
TTITLE13=Garth Brooks - Which one of them
TTITLE14=Garth Brooks - something with a ring to it
TTITLE15=Garth Brooks - anonymous
TTITLE16=Garth Brooks - To make you feel my love
TTITLE17=Scooter Lee - Movin' on up
TTITLE18=Willie P Richardson - Whole hog
EXTD=
EXTT0=
EXTT1=
EXTT2=
EXTT3=
EXTT4=
EXTT5=
EXTT6=
EXTT7=
EXTT8=
EXTT9=
EXTT10=
EXTT11=
EXTT12=
EXTT13=
EXTT14=
EXTT15=
EXTT16=
EXTT17=
EXTT18=
PLAYORDER=
